<svg id="visual" viewBox="0 0 900 600" width="900" height="600" xmlns="http://www.w3.org/2000/svg" xmlns:xlink="http://www.w3.org/1999/xlink" version="1.1"><rect x="0" y="0" width="900" height="600" fill="#002233"></rect><path d="M0 381L16.7 382.7C33.3 384.3 66.7 387.7 100 398.2C133.3 408.7 166.7 426.3 200 432.8C233.3 439.3 266.7 434.7 300 415.7C333.3 396.7 366.7 363.3 400 358.7C433.3 354 466.7 378 500 394.8C533.3 411.7 566.7 421.3 600 422.5C633.3 423.7 666.7 416.3 700 402.5C733.3 388.7 766.7 368.3 800 361.7C833.3 355 866.7 362 883.3 365.5L900 369L900 601L883.3 601C866.7 601 833.3 601 800 601C766.7 601 733.3 601 700 601C666.7 601 633.3 601 600 601C566.7 601 533.3 601 500 601C466.7 601 433.3 601 400 601C366.7 601 333.3 601 300 601C266.7 601 233.3 601 200 601C166.7 601 133.3 601 100 601C66.7 601 33.3 601 16.7 601L0 601Z" fill="#0066FF" stroke-linecap="round" stroke-linejoin="miter"></path></svg>